<svg viewBox="0 0 385 393" fill="none" xmlns="http://www.w3.org/2000/svg"><path d="m89.1109 297.807 29.7331-49.562-66.5889-44.882-34.3884 57.321 55.0777 37.123h16.1665Z" fill="#F0F0F0"/><path fill-rule="evenodd" clip-rule="evenodd" d="M56.9778 312.048h73.2442v-14.991H56.9778v14.991Zm72.2932-.967H57.929v-13.056h71.342v13.056Z" fill="#579148"/><path d="M122.044 309.8c2.553 0 4.623-2.181 4.623-4.872s-2.07-4.872-4.623-4.872c-2.552 0-4.622 2.181-4.622 4.872s2.07 4.872 4.622 4.872ZM107.822 309.8c2.553 0 4.622-2.181 4.622-4.872s-2.069-4.872-4.622-4.872-4.622 2.181-4.622 4.872 2.069 4.872 4.622 4.872ZM95.0221 309.8c2.5528 0 4.6222-2.181 4.6222-4.872s-2.0694-4.872-4.6222-4.872c-2.5528 0-4.6222 2.181-4.6222 4.872s2.0694 4.872 4.6222 4.872ZM81.5111 309.8c2.5528 0 4.6223-2.181 4.6223-4.872s-2.0695-4.872-4.6223-4.872c-2.5527 0-4.6222 2.181-4.6222 4.872s2.0695 4.872 4.6222 4.872ZM67.9999 309.8c2.5528 0 4.6222-2.181 4.6222-4.872s-2.0694-4.872-4.6222-4.872c-2.5528 0-4.6222 2.181-4.6222 4.872s2.0694 4.872 4.6222 4.872Z" fill="#40CE81"/><path d="M218.729 138.858v-38.284h18.16V81.9361H148V175.63h75.986v-9.161c0-3.448 1.299-6.756 3.613-9.195 2.314-2.438 5.451-3.808 8.723-3.808h.567v-14.608h-18.16ZM33.9729 7.43466 62.26236822.00001583l7.05335926 29.81875048-28.28946822 7.43464416z" fill="#F0F0F0"/><path fill="#40CE81" d="M257.511 324.041h59.7333v12.7424H257.511z"/><path fill="#F0F0F0" d="M241.867 259.58h87.4667v11.9928H241.867z"/><path fill="#579148" d="M.0888672 392.25h372.622v.749552h-372.622z"/><path fill-rule="evenodd" clip-rule="evenodd" d="M235.492 393h108.75c7.079-.009 12.817-6.053 12.825-13.512V166.655c-.008-7.459-5.746-13.503-12.825-13.512h-108.75c-7.08.009-12.817 6.053-12.825 13.512v212.833c.008 7.459 5.745 13.503 12.825 13.512Zm-11.869-226.345c.008-6.902 5.317-12.496 11.869-12.504h108.75c6.551.008 11.861 5.602 11.868 12.504v212.833c-.007 6.903-5.317 12.496-11.868 12.504h-108.75c-6.552-.008-11.861-5.601-11.869-12.504V166.655Z" fill="#579148"/><path fill-rule="evenodd" clip-rule="evenodd" d="M274.578 160.639c0 1.656 1.273 2.998 2.844 2.998 1.571-.002 2.843-1.343 2.845-2.998 0-1.656-1.274-2.998-2.845-2.998-1.571 0-2.844 1.342-2.844 2.998Zm.948 0c0-1.104.849-1.999 1.896-1.999 1.047.001 1.896.896 1.897 1.999 0 1.104-.849 1.999-1.897 1.999-1.047 0-1.896-.895-1.896-1.999Z" fill="#579148"/><path fill="#579148" d="M284.533 159.889h21.3333v.749552H284.533z"/><path d="M349.244 167.385v40.476c-21.207-.001-38.399-18.122-38.4-40.476h38.4Z" fill="#40CE81"/><path fill-rule="evenodd" clip-rule="evenodd" d="M231.2 379.508h118.044V167.385H231.2v212.123Zm117.089-1.008H232.156V168.393h116.133V378.5Z" fill="#579148"/><path opacity=".1" d="M321.156 205.612c7.265 0 13.155-6.208 13.155-13.867 0-7.658-5.89-13.866-13.155-13.866-7.266 0-13.156 6.208-13.156 13.866 0 7.659 5.89 13.867 13.156 13.867Z" fill="#000"/><path d="M319.022 207.111c7.266 0 13.156-6.208 13.156-13.866 0-7.659-5.89-13.867-13.156-13.867-7.265 0-13.155 6.208-13.155 13.867 0 7.658 5.89 13.866 13.155 13.866Z" fill="#40CE81"/><path fill="#579148" d="M236.178 175.63h18.4889v6.74597H236.178zM246.133 243.09h18.4889v6.74597H246.133z"/><path fill-rule="evenodd" clip-rule="evenodd" d="M246.844 269.324h88.178v-12.742h-88.178v12.742Zm87.22-.98h-86.261v-10.782h86.261v10.782Z" fill="#579148"/><path fill="#F0F0F0" d="M241.867 297.807h87.4667v11.9928H241.867z"/><path fill="#579148" d="M246.133 280.567h18.4889v6.74597H246.133z"/><path fill-rule="evenodd" clip-rule="evenodd" d="M246.844 307.551h88.178v-12.742h-88.178v12.742Zm87.22-.98h-86.261v-10.782h86.261v10.782ZM260.355 333.785H320.8v-13.492h-60.445v13.492Zm59.486-.963h-58.526v-11.565h58.526v11.565Z" fill="#579148"/><path d="M331.467 264.452c-.001 2.055-1.224 3.889-3.058 4.584-1.834.696-3.885.103-5.127-1.481l-.004-.005c-1.21-1.546-1.397-3.716-.473-5.467.925-1.752 2.773-2.728 4.657-2.459 1.884.268 3.42 1.726 3.871 3.673 0 .001 0 .003.001.004s.002.001.003.001c.086.377.129.763.13 1.15Z" fill="#40CE81"/><path opacity=".1" d="M331.467 264.171c-.001 2.173-1.255 4.113-3.137 4.849-1.881.735-3.985.109-5.259-1.567l-.005-.005c-.087-.398-.132-.806-.133-1.216.001-2.173 1.255-4.113 3.137-4.849 1.881-.735 3.985-.109 5.259 1.567 0 .001.001.002.002.003 0 .001.002.002.003.002.088.398.132.806.133 1.216Z" fill="#000"/><path d="M328.978 271.573c2.552 0 4.622-2.182 4.622-4.872 0-2.691-2.07-4.873-4.622-4.873-2.553 0-4.623 2.182-4.623 4.873 0 2.69 2.07 4.872 4.623 4.872ZM331.467 301.929c-.001 2.055-1.224 3.889-3.058 4.585-1.834.695-3.885.103-5.127-1.481l-.004-.005c-1.21-1.547-1.397-3.716-.473-5.468.925-1.751 2.773-2.727 4.657-2.459 1.884.269 3.42 1.726 3.871 3.674 0 .001 0 .002.001.003s.002.002.003.002c.086.376.129.762.13 1.149Z" fill="#40CE81"/><path opacity=".1" d="M331.467 302.398c-.001 2.173-1.255 4.113-3.137 4.849-1.881.735-3.985.109-5.259-1.567l-.005-.005c-.087-.398-.132-.806-.133-1.216.001-2.173 1.255-4.113 3.137-4.849 1.881-.735 3.985-.109 5.259 1.567 0 .001.001.002.002.003 0 .001.002.002.003.002.088.398.132.806.133 1.216Z" fill="#000"/><path d="M328.978 309.8c2.552 0 4.622-2.181 4.622-4.872s-2.07-4.872-4.622-4.872c-2.553 0-4.623 2.181-4.623 4.872s2.07 4.872 4.623 4.872Z" fill="#40CE81"/><path fill="#F0F0F0" d="M224.089 105.922h24.8889v26.2343H224.089z"/><path fill-rule="evenodd" clip-rule="evenodd" d="M315.111 118.664c0 3.312 2.547 5.996 5.689 5.996 3.14-.003 5.685-2.686 5.689-5.996 0-3.312-2.547-5.996-5.689-5.996s-5.689 2.684-5.689 5.996Zm.948 0c0-2.76 2.123-4.997 4.741-4.997 2.617.003 4.738 2.239 4.741 4.997 0 2.76-2.123 4.997-4.741 4.997-2.618 0-4.741-2.237-4.741-4.997ZM182.844 209.36h12.089v-12.743h-12.089v12.743Zm11.159-.98h-10.229v-10.782h10.229v10.782ZM372 307.551h12.089v-12.742H372v12.742Zm11.159-.98H372.93v-10.782h10.229v10.782Z" fill="#579148"/><path d="m138.756 219.782 2.131 1.218 7.254 4.15 11.71 6.696 6.824-13.438c1.298-2.551 1.587-5.544.804-8.321-.784-2.777-2.576-5.108-4.981-6.481-5.222-2.993-11.667-2.065-15.949 2.297l-.003.003c-1.027 1.047-1.894 2.257-2.568 3.588l-5.222 10.288Z" fill="#134926"/><path d="m170.756 354.833-1.373 17.15-5.15.779-3.433-19.488 9.956 1.559Z" fill="#FFB8B8"/><path d="M162.473 373.226s6.809-3.847 8.242-.77c0 0-1.075 9.232 3.226 10.386 4.3 1.154 6.092 9.232 0 10.001-6.093.769-10.035-1.539-12.185-1.539-2.151 0 0-8.077 0-8.077l.717-10.001Z" fill="#134926"/><path d="m127.378 354.833 1.373 17.15 5.149.779 3.433-19.488-9.955 1.559Z" fill="#FFB8B8"/><path d="M136.372 373.226s-6.809-3.847-8.243-.77c0 0 1.075 9.232-3.225 10.386-4.301 1.154-6.093 9.232 0 10.001 6.092.769 10.035-1.539 12.185-1.539 2.15 0 0-8.077 0-8.077l-.717-10.001Z" fill="#134926"/><path d="M156.178 222.852c5.302 0 9.6-4.531 9.6-10.119 0-5.589-4.298-10.119-9.6-10.119s-9.6 4.53-9.6 10.119c0 5.588 4.298 10.119 9.6 10.119Z" fill="#FFB8B8"/><path d="m127.378 231.696 7.462 12.514 8.885-.759 14.57 1.138s1.375-2.935 2.498-5.79c.615-1.426 1.088-2.917 1.411-4.448.355-2.655-4.62-5.309-4.62-5.309s-.195-.038-.522-.121c-.434-.11-1.102-.292-1.834-.558-1.652-.599-3.639-1.615-4.041-3.113-.71-2.654 4.62-6.446 4.62-6.446l-6.396-6.446s-5.683 8.422-12.584 10.34c-.4.113-.806.202-1.215.266-.022.004-.039.007-.061.011-7.463 1.138-8.173 8.721-8.173 8.721Z" fill="#FFB8B8"/><path d="m131.121 228.848-4.116 3.402s-3.367 16.252-2.245 20.788c1.123 4.535-.374 8.693-.374 9.449 0 .756-3.367 29.103-3.367 29.103s-6.735 15.118.374 13.606c7.109-1.512 4.49-16.63 4.49-16.63l8.606-26.457v-22.3l-3.368-10.961ZM159.41 231.846l2.91 2.249 1.454 31.478 10.91 26.981s8.001 13.116 2.91 13.491c-5.092.374-8.365-13.491-8.365-13.491l-9.819-25.857-1.454-25.107 1.454-9.744Z" fill="#FFB8B8"/><path d="M141.411 233.346s7.173 5.305 18.65 3.41c0 0 3.227 6.821 1.434 10.61-1.793 3.789 2.152 12.884 2.869 14.021.718 1.136 8.966 24.63 11.836 50.019 2.869 25.388 10.759 42.819 3.945 45.093-6.815 2.273-20.802 4.926-22.236 2.652-1.435-2.274-3.587-58.734-3.587-58.734l-3.945 21.599s5.38 36.756 1.435 37.514c-3.945.758-28.692-1.516-27.974-6.063.717-4.547 7.89-28.42 7.89-28.42s-.359-47.745 6.814-56.84c0 0 2.869-4.926-1.076-11.368-3.945-6.442-3.586-16.673-3.586-16.673s2.869 0 7.531-6.82Z" fill="#134926"/><path d="m135.2 223.116 5.746 13.977 1.365-.754-5.944-13.487-1.167.264ZM155.111 228.848l4.588 10.494 1.101-.102-.374-1.786-3.44-8.051c-.444-.109-1.127-.29-1.875-.555ZM140.446 220.621c.703 2.448 2.695 4.201 5.054 4.449 2.359.249 4.626-1.056 5.753-3.311-4.527-6.402-.644-10.423 6.709-13.465 1.133-2.274.883-5.063-.633-7.059-4.105-.568-8.228.9-11.219 3.994l-.003.004-5.225 10.48c-.752 1.505-.909 3.275-.436 4.908Z" fill="#134926"/><path d="M151.2 216.106c.589 0 1.067-1.007 1.067-2.249 0-1.242-.478-2.248-1.067-2.248s-1.067 1.006-1.067 2.248c0 1.242.478 2.249 1.067 2.249Z" fill="#FFB8B8"/><path d="m155.111 210.2 10.817 5.156 1.983-4.603c-.342-1.682-1.057-3.256-2.087-4.592l-7.445-3.547-3.268 7.586Z" fill="#134926"/><path d="M181.067 311.299c2.552 0 4.622-2.181 4.622-4.872s-2.07-4.872-4.622-4.872c-2.553 0-4.623 2.181-4.623 4.872s2.07 4.872 4.623 4.872Z" fill="#40CE81"/><path d="M27.4666 341.281c1.7673 0 3.2-1.51 3.2-3.373 0-1.863-1.4327-3.373-3.2-3.373s-3.2 1.51-3.2 3.373c0 1.863 1.4327 3.373 3.2 3.373Z" fill="#FF6584"/><path fill="#579148" d="M42.0444 355.522h.711111v37.4776H42.0444z"/><path d="M42.7556 360.02c2.7492 0 4.9778-2.349 4.9778-5.247 0-2.898-2.2286-5.247-4.9778-5.247-2.7491 0-4.9778 2.349-4.9778 5.247 0 2.898 2.2287 5.247 4.9778 5.247ZM42.0444 378.009s-.6946-15.945-14.9333-14.092l14.9333 14.092Z" fill="#579148"/></svg>