<svg viewBox="0 0 38 36" fill="none" xmlns="http://www.w3.org/2000/svg"><path fill-rule="evenodd" clip-rule="evenodd" d="M36.0449 22.24c-.2288-.0909-.49-.0341-.66.1439l-2.5626 2.6934V9.07935h.003l2.445-2.63982c.225-.24305.2101-.62288-.0332-.84781l-.0006-.00055-.88-.81897 1.2228-1.31991c.2247-.24332.2096-.62287-.0338-.84753l-2.64-2.444824c-.2431-.2249281-.6226-.2103723-.8476.032957l-4.266 4.605947H7.02228c-.00192-1.65606-1.3439-2.99794-3.00009-2.99987h-.59986C1.76614 1.8009.424164 3.14278.422241 4.79884V30.597c0 .3312.268616.5998.600129.5998H10.105l-1.26009 1.5129c-.21176.2549-.17715.6331.07745.8448l2.76664 2.3034c.2546.212.6331.1774.8451-.0772l.0003-.0002 3.0709-3.6892c.2121-.2555.3486-.5655.3936-.8945h10.9943l-3.606 3.7864c-.2282.24-.2186.6198.0215.8481.1115.106.2595.1653.4136.165h11.9998c.3315 0 .6001-.2686.6001-.5998v-12.599c0-.2455-.1494-.4663-.3773-.5575ZM33.982 6.05868l-1.1599 1.25455v-.88241l.7199-.77997.44.40783Zm-2.3598-.09831v-.00852h.0072l1.0313-1.11338-1.7622-1.63025-6.1128 6.60559 1.7622 1.63029 5.0743-5.48373Zm-6.2268 6.05103-1.3801.4026.2947-1.4075 1.0854 1.0049Zm8.8952-8.93508-1.7614-1.62943-.8155.88077 1.7617 1.63107.8152-.88241ZM3.42273 2.99888h.59985c.99427 0 1.80011.80579 1.80011 1.79998V27.6127c-.51635-.3971-1.14889-.6135-1.80011-.6157h-.59985c-.65149.0022-1.28375.2186-1.80011.6157V4.79886c0-.99419.80585-1.79998 1.80011-1.79998ZM4.02258 28.197h-.59985c-.99426 0-1.80011.806-1.80011 1.8h4.20007c0-.994-.80584-1.8-1.80011-1.8Zm10.66072 3.1269-.384.4608-1.8443-1.5352.3834-.4614c.2121-.2546.5903-.2892.8449-.0772.0003 0 .0003.0003.0005.0003l.9221.7657c.2548.2117.2897.5899.078.8448l-.0006.0005v.0017Zm-4.5316 1.6926 1.8446 1.5352 1.5354-1.8447-1.8444-1.5355-1.5356 1.845Zm5.5953-3.0196c-.0997-.1661-.2258-.3147-.3733-.4402l-.922-.7674c-.7641-.636-1.899-.5325-2.5351.2316l-.8141.976H7.02246V5.99879H26.6819l-3.1841 3.44067c-.0456.05135-.0818.11067-.1068.17466-.0071.01731-.0126.03351-.0187.05164-.0022.00686-.0049.01377-.0077.02077-.0043.01119-.0088.0226-.0115.03443l-.7163 3.42444c-.0676.3244.1406.6421.465.7097.0964.02.1961.0162.2903-.0113l3.3602-.9791c.0083-.0026.016-.0064.0236-.0102.0066-.0033.0131-.0066.02-.009.0151-.0055.0308-.0132.047-.0211.0673-.0305.1283-.0736.1799-.1266l4.5997-4.97071V26.3371l-3.486 3.6598H15.747Zm9.475 4.7994h10.0003V24.2972L25.222 34.7963Zm4.0008-1.1998c-.2428 0-.4617-.1461-.5546-.3702-.0928-.2241-.0414-.4822.1302-.6539l4.2001-4.1995c.1123-.1126.265-.1757.4241-.1757.3312 0 .6001.2683.6001.5998v4.1997c0 .3312-.2686.5998-.6001.5998h-4.1998Zm3.5997-1.1999v-2.1515l-2.1517 2.1515h2.1517Zm-10.2002-9.5992h4.1998c.3315 0 .6001.2686.6001.5998 0 .3315-.2686.6001-.5998.6001h-16.8c-.33154 0-.60016-.2686-.60016-.6001 0-.3312.26862-.5998.60016-.5998h4.1998v-6.5995c.0005-.159.0634-.3117.1752-.4249l3.5999-3.5997c.2343-.2342.6142-.2342.8485 0l3.5999 3.5997c.1123.1129.1758.2656.1766.4249v6.5995Zm-2.048-7.1996-2.1516-2.1515-2.1517 2.1515h4.3033Zm-5.1521 1.2h6.0002v5.9997h-6.0002v-5.9997Zm2.3998-7.19927h1.2002v1.19987H17.822V9.59853Zm1.2002 15.59867H17.822v1.1999h1.2002v-1.1999Z" fill="#000"/></svg>