<?xml version="1.0" standalone="no"?>
<!DOCTYPE svg PUBLIC "-//W3C//DTD SVG 20010904//EN"
 "http://www.w3.org/TR/2001/REC-SVG-20010904/DTD/svg10.dtd">
<svg version="1.0" xmlns="http://www.w3.org/2000/svg"
 width="96.000000pt" height="96.000000pt" viewBox="0 0 96.000000 96.000000"
 preserveAspectRatio="xMidYMid meet">
<metadata>
Created by potrace 1.14, written by Peter Selinger 2001-2017
</metadata>
<g transform="translate(0.000000,96.000000) scale(0.100000,-0.100000)"
fill="#000000" stroke="none">
<path d="M428 869 c-16 -6 -28 -15 -28 -20 0 -5 -4 -8 -9 -6 -9 2 -65 -53 -66
-66 0 -4 -4 -11 -10 -15 -42 -30 -47 -122 -10 -172 l25 -34 0 51 c0 36 6 58
21 77 35 45 50 48 104 20 53 -26 120 -32 174 -13 24 8 35 8 46 -1 24 -20 30
-3 9 27 -10 15 -27 45 -38 66 -10 21 -36 50 -56 63 -42 28 -121 39 -162 23z"/>
<path d="M239 523 c-8 -9 -30 -23 -49 -31 -75 -30 -110 -84 -110 -167 0 -84
37 -143 119 -190 10 -6 12 -4 6 6 -5 7 4 4 19 -9 44 -34 117 -24 155 22 11 13
8 14 -22 9 -44 -7 -103 20 -122 56 -12 24 -11 30 11 66 28 47 32 126 10 180
-14 32 -14 36 5 45 11 6 17 15 14 21 -9 13 -21 11 -36 -8z"/>
<path d="M776 482 c31 -24 44 -55 44 -100 0 -46 -11 -58 -63 -67 -50 -10 -95
-41 -132 -92 -23 -33 -35 -41 -52 -37 -46 9 -22 -21 30 -39 96 -33 116 -36
165 -24 38 10 53 21 89 67 44 57 64 128 48 167 -4 10 -9 29 -11 41 -7 52 -67
102 -121 102 -16 0 -16 -2 3 -18z"/>
<path d="M382 478 c-22 -22 -13 -46 21 -59 l32 -13 -32 -3 c-18 -3 -33 -8 -33
-12 0 -14 42 -21 62 -10 26 14 19 41 -15 57 -31 15 -27 36 5 26 15 -4 19 -2
16 7 -6 19 -40 23 -56 7z"/>
<path d="M460 436 c0 -30 5 -58 10 -61 6 -4 10 17 10 54 0 34 -4 61 -10 61 -5
0 -10 -24 -10 -54z"/>
<path d="M522 478 c-21 -21 -15 -86 9 -98 23 -13 49 2 49 28 0 12 -3 13 -12 4
-21 -21 -38 -14 -38 16 0 35 9 45 26 31 22 -18 39 -6 20 14 -20 20 -37 22 -54
5z"/>
<path d="M600 435 c0 -44 3 -55 16 -55 10 0 14 6 11 15 -4 8 -2 17 3 20 5 3
11 -4 15 -15 3 -11 13 -20 21 -20 17 0 19 16 3 26 -8 4 -8 9 0 17 16 16 13 54
-5 61 -9 3 -27 6 -40 6 -22 0 -24 -3 -24 -55z m60 15 c0 -5 -6 -10 -14 -10 -8
0 -18 5 -21 10 -3 6 3 10 14 10 12 0 21 -4 21 -10z"/>
</g>
</svg>
