<svg viewBox="0 0 412 312" fill="none" xmlns="http://www.w3.org/2000/svg"><path d="M154.616 304c73.631 0 133.321-64.471 133.321-144S228.247 16 154.616 16C80.9843 16 21.2943 80.471 21.2943 160s59.69 144 133.3217 144Z" fill="#F2F2F2"/><path d="M176.01 181.957C146.654 230.834 154.698 293 154.698 293s55.639-17.08 84.995-65.957C269.049 178.166 261.006 116 261.006 116s-55.64 17.08-84.996 65.957Z" fill="#379964"/><path d="M154.607 292s-.718-.123-2.041-.411c-1.056-.23-2.509-.559-4.283-1.011-15.86-4.02-58.0273-17.609-85.5957-53.337C28.1828 192.503 29.6357 130 29.6357 130s52.7586 9.216 87.5233 49.391c1.506 1.726 2.972 3.516 4.397 5.368 30.023 38.926 32.822 91.301 33.044 104.249.03 1.94.007 2.992.007 2.992Z" fill="#0D4C0F"/><path clip-rule="evenodd" d="M133.221 181.957C162.577 230.834 154.533 293 154.533 293s-55.6386-17.08-84.9946-65.957C40.1823 178.166 48.2259 116 48.2259 116s55.6391 17.08 84.9951 65.957Z" stroke="#379964" stroke-width="2"/><path opacity=".1" d="M154.616 290.056c-.778 1.015-1.464 1.882-2.028 2.592-1.25 1.543-1.959 2.352-1.959 2.352s-.862-1.172-2.31-3.368c-7.952-12.001-33.529-54.673-31.554-103.964.106-2.584.282-5.14.526-7.668 1.501 1.733 2.963 3.53 4.383 5.39 29.93 39.081 32.721 91.666 32.942 104.666Z" fill="#000"/><path d="M198.948 191.281C196.607 249.547 156.395 295 156.395 295s-36.416-49.015-34.075-107.281C124.661 129.453 164.873 84 164.873 84s36.416 49.015 34.075 107.281Z" fill="#0D4C0F"/><path d="M156.468 293 164.8 86" stroke="#379964" stroke-width="2"/><path d="M206 312c113.771 0 206-6.268 206-14s-92.229-14-206-14C92.2293 284 0 290.268 0 298s92.2293 14 206 14ZM34.2563 293v-56 56Z" fill="#379964"/><path d="M34.2563 293v-56" stroke="#379964" stroke-width="2"/><path d="M34.2564 245c4.0906 0 7.4067-3.582 7.4067-8s-3.3161-8-7.4067-8c-4.0907 0-7.4068 3.582-7.4068 8s3.3161 8 7.4068 8ZM34.2562 272s-1.0335-24.632-22.2202-21.768L34.2562 272ZM211.092 202V46v156Z" fill="#379964"/><path d="M211.092 202V46" stroke="#379964" stroke-width="2"/><path d="M211.092 58c5.625 0 10.184-4.9249 10.184-11s-4.559-11-10.184-11c-5.625 0-10.184 4.9249-10.184 11s4.559 11 10.184 11ZM211.092 91s-1.421-33.5884-30.553-29.6842L211.092 91Z" fill="#379964"/><path d="m331.716 116-8.681 17.635s-62.773 12.956-54.76 33.11c8.014 20.154 17.029 49.665 21.704 48.946 4.674-.72 30.384-16.555 31.386-21.234 1.002-4.679-23.039-26.632-23.039-26.632l39.734-8.278s5.676 28.792-1.669 48.586c-7.346 19.794-11.687 73.418-6.678 74.138 5.008.72 17.696 5.039 23.372 1.08 5.677-3.959 8.348-90.694 8.348-90.694s12.02-56.863 4.675-63.341C358.762 122.838 331.716 116 331.716 116Z" fill="#3A622F"/><path d="M345.286 274.257s-7.758-4.424-9.391-.885c0 0 1.225 10.618-3.674 11.945s-6.941 10.618 0 11.502c6.941.885 11.432-1.769 13.881-1.769 2.45 0 0-9.291 0-9.291l-.816-11.502ZM308.273 201.835s-8.452-2.56-9.36 1.285c0 0 3.266 10.134-1.269 12.559-4.535 2.425-4.723 12.006 2.241 11.282 6.963-.723 10.841-4.357 13.237-4.918 2.397-.562-1.809-9.113-1.809-9.113l-3.04-11.095Z" fill="#3A622F"/><path d="M350.335 53.8587s.329 13.43-1.979 14.5189C346.047 69.4665 361.218 76 361.218 76l2.638-5.0816s-2.968-18.1486-2.309-19.6005c.66-1.4519-11.212 2.5408-11.212 2.5408Z" fill="#9F616A"/><path d="M355.523 57c11.25 0 20.369-9.8497 20.369-22s-9.119-22-20.369-22c-11.249 0-20.368 9.8497-20.368 22s9.119 22 20.368 22Z" fill="#3A622F"/><path d="M357.375 23c4.602 0 8.333-4.0294 8.333-9 0-4.97056-3.731-9-8.333-9s-8.333 4.02944-8.333 9c0 4.9706 3.731 9 8.333 9Z" fill="#3A622F"/><path d="M346.16 9c.001-4.60757 3.243-8.470956 7.512-8.951337-.29-.03234-.582-.0485826-.873-.048663-4.631 0-8.385 4.02944-8.385 9 0 4.9706 3.754 9 8.385 9 .291-.0001.583-.0163.873-.0487-4.269-.4803-7.511-4.3437-7.512-8.9513Z" fill="#3A622F"/><path d="M354.598 61c7.67 0 13.887-6.7157 13.887-15s-6.217-15-13.887-15c-7.67 0-13.888 6.7157-13.888 15s6.218 15 13.888 15Z" fill="#9F616A"/><path d="M365.014 65.8094s-11.993 3.9403-17.99 0c-5.997-3.9404-20.322 7.5224-22.654 12.5374-2.332 5.015 8.662 10.03 8.662 10.03s-3.14 9.6843-2.499 14.5072c.666 5.015-.5 15.224-.5 15.224s29.433 20.85 35.981 11.463c.999-1.433 9.328-35.1046 9.328-35.1046l11.66-12.5375s-7.329-11.4628-11.66-12.5374c-4.331-1.0746-10.328-3.5821-10.328-3.5821Z" fill="#D0CDE1"/><path d="M284.175 139s-22.454 12.838-17.831 16.506c4.623 3.668 23.445-14.305 23.445-14.305L284.175 139ZM373.043 129.939s-10.181-7.717-11.82-3.859c-1.639 3.859 11.147 12.547 13.838 9.147 2.692-3.4-2.018-5.288-2.018-5.288Z" fill="#9F616A"/><path d="m381.233 77 5.937 3.9883s20.122 30.4557 13.195 37.3447c-6.927 6.889-24.74 20.667-24.74 20.667s-5.937-9.427-3.958-9.789c1.979-.363 17.812-14.866 17.812-14.866l-13.854-28.2807L381.233 77ZM327.915 76l-4.321 1.8105-11.3 22.0883-29.912 39.4692s3.988 6.88 7.312 5.432c3.323-1.449 28.25-31.865 28.25-31.865l16.285-27.5203L327.915 76Z" fill="#D0CDE1"/><path d="M355.986 37c7.926 0 14.351-4.0294 14.351-9s-6.425-9-14.351-9c-7.925 0-14.35 4.0294-14.35 9s6.425 9 14.35 9Z" fill="#3A622F"/><path fill="#0D4C0F" d="M261.088 223h65.7348v71H261.088z"/><path fill-rule="evenodd" clip-rule="evenodd" d="M306.33 272.409c6.883 0 11.234-6.322 11.234-16.354 0-13.646-9.679-23.055-23.646-23.055-14.531 0-24.498 10.587-24.498 26.006 0 15.799 9.767 25.98 25.025 25.993 2.644.014 5.281-.294 7.861-.921 1.047-.273 1.7-1.398 1.472-2.534-.228-1.136-1.255-1.868-2.312-1.649-2.252.429-4.534.637-6.82.623-12.55 0-20.612-8.312-20.612-21.336 0-12.739 8.149-21.742 19.583-21.742 11.56 0 19.383 7.541 19.383 18.818 0 7.067-2.206 11.616-5.679 11.616-2.006 0-3.122-1.314-3.122-3.493v-17.505h-5.002v3.764h-.502c-1.153-2.748-3.774-4.427-6.858-4.427-6.005 0-10.118 5.266-10.118 12.834 0 7.879 4.088 13.172 10.206 13.172 3.435 0 5.993-1.719 7.234-4.86h.501c.464 3.019 3.147 5.05 6.67 5.05Zm-13.477-5.199c-3.549 0-5.73-3.032-5.73-8.041 0-5.023 2.144-7.974 5.792-7.974 3.674 0 6.031 3.046 6.031 7.974 0 4.927-2.357 8.041-6.093 8.041Z" fill="#fff"/></svg>