<svg viewBox="0 0 434 316" fill="none" xmlns="http://www.w3.org/2000/svg"><g clip-path="url(#a)"><path d="M89.5852 137.381c-21.9717.111-39.8558.467-39.8558.467s21.2581-30.905 39.7761-19.455c18.5185 11.45 39.7905 19.053 39.7905 19.053s-17.739-.176-39.7108-.065Z" fill="#F2F2F2"/><path d="M335.446 146.848c2.497 0 4.521-2.238 4.521-5 0-2.761-2.024-5-4.521-5s-4.521 2.239-4.521 5c0 2.762 2.024 5 4.521 5Z" fill="#FF6584"/><path d="m301.982 221.163 34.347-43.621 1.06 1.021-34.347 43.621-1.06-1.021Z" fill="#3D563E"/><path d="M337.254 185.848c3.995 0 7.233-3.581 7.233-8 0-4.418-3.238-8-7.233-8-3.995 0-7.233 3.582-7.233 8 0 4.419 3.238 8 7.233 8ZM315.813 204.848s13.887-19.572-3.875-33l3.875 33ZM85.5143 239.253c25.4507 52.191 79.4657 74.595 79.4657 74.595s12.752-62.213-12.698-114.404c-25.451-52.191-79.4666-74.596-79.4666-74.596s-12.7518 62.214 12.6989 114.405Z" fill="#3D563E"/><path d="M102.733 222.308c45.94 30.657 63.634 91.549 63.634 91.549s-56.792 11.188-102.7328-19.469C17.6933 263.732 0 202.84 0 202.84s56.7916-11.188 102.733 19.468Z" fill="#434711"/><path d="M284.988 222.578c-46.19 30.238-64.371 91.02-64.371 91.02s56.708 11.758 102.899-18.48c46.191-30.237 64.372-91.019 64.372-91.019s-56.709-11.758-102.9 18.479Z" fill="#3D563E"/><path d="M301.756 241.069c-25.863 51.915-80.048 73.779-80.048 73.779s-12.251-62.305 13.612-114.22 80.047-73.78 80.047-73.78 12.252 62.306-13.611 114.221Z" fill="#434711"/><path d="M207.851 98.8884c-5.439-5.4427-6.2-14.5892-1.752-21.04-.284.2946-.562.6005-.827.9257-5.225 6.3936-4.776 16.2629 1.002 22.0439 5.779 5.781 14.698 5.284 19.922-1.1096.266-.3252.513-.6616.75-1.0038-5.354 5.5454-13.655 5.6254-19.095.1838Z" fill="#2E412E"/><path d="M194.848 109.848c16.229 0 29.385-14.5504 29.385-32.4996 0-17.9493-13.156-32.5-29.385-32.5s-29.385 14.5507-29.385 32.5c0 17.9492 13.156 32.4996 29.385 32.4996Z" fill="#2E412E"/><path d="m186.473 118.879.881-2.505-16.036 14.84-19.384 11.949s-9.868-41.629-10.573-42.4c-.705-.7707-13.393-30.0649-19.032-16.1887-5.639 13.8762 10.926 21.9707 10.926 21.9707s.528 50.687 17.446 50.301c16.917-.385 37.887-17.152 38.239-18.694.353-1.542-2.467-19.273-2.467-19.273ZM191.231 110.848c9.738 0 17.632-8.73 17.632-19.4996s-7.894-19.5-17.632-19.5c-9.737 0-17.631 8.7304-17.631 19.5s7.894 19.4996 17.631 19.4996Z" fill="#FFB8B8"/><path d="M194.286 105.598s4.579 6.569 3.17 7.341c-1.409.773-9.509 1.159-14.44 7.728-4.931 6.568 5.987 23.181 5.987 23.181l41.559-30.522-16.905-6.182s-11.622-6.955-11.27-14.2956l-8.101 12.7496Z" fill="#FFB8B8"/><path d="M250.454 315.848h-46.682c-2.644-21.337-3.867-40.891-3.867-40.891s-.682 19.669-2.497 40.891h-59.975c8.502-62.84 48.805-130.984 48.805-130.984s.351-9.283 1.403-10.831c1.052-1.543-5.957-1.93-9.113-13.529-1.924-7.081-.194-11.715 1.45-14.246.565-.912 1.259-1.718 2.057-2.385 0 0 .701-8.116 0-9.277-.09-.152.602-.686 1.881-1.496 1.067-.68 2.54-1.553 4.303-2.557 10.099-5.779 29.646-16.004 36.342-19.487 1.469-.768 2.322-1.208 2.322-1.208l11.914 4.639c9.458 3.478 9.458 25.521 9.458 25.521l-.535.9-14.297 23.9-8.293 13.869c2.104 1.543-2.099 11.213-2.099 11.213s5.989 9.497 10.861 23.994c2.755 8.068 4.633 16.468 5.597 25.024.613 5.545.734 11.143.36 16.715-1.299 18.628 4.473 41.268 10.605 60.225Z" fill="#2E412E"/><path d="M238.656 116.283c-.777-.489-1.707-.569-2.542-.22-.835.349-1.49 1.093-1.79 2.032-1.042 3.208-2.099 9.896-1.723 23.801.693 25.573 1.039 43.009 1.039 43.009v38.747s-15.237 37.196-6.926 37.196c8.312 0 14.199-29.447 14.199-29.447s7.619-44.559 5.194-52.308c0 0 6.836-53.535-7.451-62.81Z" fill="#FFB8B8"/><path d="M189.423 85.8484c8.239 0 14.919-5.1487 14.919-11.5s-6.68-11.5-14.919-11.5-14.919 5.1487-14.919 11.5 6.68 11.5 14.919 11.5ZM213.383 64.8484c7.99 0 14.467-7.1635 14.467-16 0-8.8366-6.477-16-14.467-16-7.989 0-14.466 7.1634-14.466 16 0 8.8365 6.477 16 14.466 16Z" fill="#2E412E"/><path d="M223.329 60.233c-7.521-.0011-13.787-6.2544-14.413-14.3846-.032.4316-.053.8669-.053 1.3077 0 8.6666 6.476 15.6923 14.466 15.6923 7.99 0 14.467-7.0257 14.467-15.6923 0-.4408-.021-.8761-.054-1.3077-.626 8.1302-6.892 14.3835-14.413 14.3846Z" fill="#2E412E"/><path d="M208.31 87.8668c.659-.174.902-1.665.542-3.3302s-1.185-2.8741-1.844-2.7001c-.659.174-.901 1.665-.541 3.3302.359 1.6652 1.185 2.8741 1.843 2.7001Z" fill="#FFB8B8"/><path d="M207.958 87.8484c.499 0 .904-.4477.904-1s-.405-1-.904-1-.904.4477-.904 1 .405 1 .904 1Z" fill="#F2F2F2"/><path fill-rule="evenodd" clip-rule="evenodd" d="M36.1667 147.348c0 3.59 2.6313 6.5 5.8771 6.5 3.2444-.004 5.8735-2.911 5.8771-6.5 0-3.589-2.6312-6.5-5.8771-6.5-3.2458 0-5.8771 2.911-5.8771 6.5Zm.9793 0c0-2.991 2.1927-5.416 4.8976-5.416 2.7036.003 4.8945 2.426 4.8976 5.416 0 2.992-2.1928 5.417-4.8976 5.417-2.7049 0-4.8976-2.425-4.8976-5.417ZM274.867 107.848h12.658V93.8484h-12.658v13.9996Zm11.684-1.077H275.84V94.9253h10.711v11.8457Z" fill="#3D563E"/><path d="M394.289 180.381c-21.972.111-39.856.467-39.856.467s21.258-30.905 39.776-19.455C412.728 172.843 434 180.446 434 180.446s-17.739-.176-39.711-.065ZM326.477 75.381c-21.972.1111-39.856.4674-39.856.4674s21.258-30.9058 39.776-19.4554c18.518 11.4504 39.791 19.0529 39.791 19.0529s-17.74-.1761-39.711-.0649ZM118.769 88.9813 68.0261 60.0095c-3.4651-1.9785-4.8297-6.7013-3.0479-10.5488l11.9544-25.8132c.3508-.7575.9667-1.3217 1.7032-1.5601L118.631 9.1388c3.321-1.07504 6.818.922 7.963 4.5462l13.14 41.6209c.664 2.1012.52 4.4129-.397 6.3931L128.27 85.5971c-.856 1.8476-2.338 3.2421-4.119 3.8768-1.782.6347-3.718.4575-5.382-.4926Z" fill="#F2F2F2"/><path opacity=".1" d="M120.568 79.4244 69.4452 55.1833c-1.6472-.9408-.1027.5053.7443-1.3243l6.4265-29.0106 62.626 35.7674-15.833 21.7434c-.847 1.8296-1.194-1.994-2.841-2.9348Z" fill="#000"/><path d="M78.4332 62.7924c-3.9299-2.235-5.5706-7.3701-3.6645-11.4697l17.082-36.7409c1.906-4.0995 6.637-5.61104 10.5673-3.376l32.411 18.4328c3.93 2.235 5.571 7.3702 3.665 11.4697l-17.082 36.7409c-1.906 4.0996-6.637 5.6111-10.567 3.3761L78.4332 62.7924Z" fill="#434711"/><path opacity=".1" d="m131.104 56.4339-13.148 28.4145-46.5268-26.5861 13.1484-28.4139 17.4814 25.7877 29.045.7978Z" fill="#000"/><path d="M101.494 57.5052 78.9226 24.4506c-.2838-.4157-.7414-.641-1.2113-.5967-.47.0443-.8862.3522-1.1019.8149L63.7652 52.2244c-.5189 1.1134-.6157 2.4086-.269 3.6007.3466 1.1921 1.1084 2.1834 2.1176 2.7559l55.9612 31.7449c1.009.5725 2.183.6793 3.263.2968 1.081-.3824 1.98-1.2228 2.499-2.3361l12.624-27.0835c.263-.5647.244-1.239-.049-1.7851-.294-.546-.822-.8871-1.397-.9028l-37.021-1.01ZM97.1188 14.1805l13.0442 7.4185-.949 2.0401-13.0438-7.4184.9486-2.0402ZM92.6093 21.0131l38.7377 22.0304-.542 1.1658-38.7378-22.0304.5421-1.1658ZM90.7799 24.9476l38.7371 22.0305-.542 1.1658-38.7371-22.0305.542-1.1658Z" fill="#F2F2F2"/><path d="m88.9506 28.8822 38.7374 22.0305-.542 1.1658L88.4085 30.048l.5421-1.1658Z" fill="#F2F2F2"/><path d="M102.237 12.1302c1.537-3.3058.364-7.36115-2.6191-9.05792-2.9836-1.69677-6.6481-.39244-8.1851 2.91332-1.5369 3.30575-.3643 7.3611 2.6192 9.0579 2.9836 1.6967 6.648.3924 8.185-2.9133Z" fill="#fff"/><path fill-rule="evenodd" clip-rule="evenodd" d="M90.315 5.19079c1.8273-3.92841 6.1896-5.475459 9.743-3.45543 3.544 2.02908 4.941 6.84108 3.126 10.77064-1.827 3.9284-6.1894 5.4754-9.7432 3.4554-3.5537-2.02-4.9532-6.8422-3.1258-10.77061Zm1.7475 1.17922 1.602 5.51999 8.9955-3.18448-.449-1.54828-7.5937 2.6929-1.1542-3.97685-1.4006.49672Z" fill="#57B894"/></g><defs><clipPath id="a"><path fill="#fff" d="M0 0h434v315.848H0z"/></clipPath></defs></svg>